#N canvas -9 -9 1923 1037.03 10;
#N canvas 0 0 1905 1019 dsponofftoggle 0;
#X obj 184 97 tgl 15 0 empty empty I 4 6 0 10 -262144 -262144 -262144
0 1;
#X text 210 96 sound O/I;
#X msg 83 80 color \$1 \$1 0, f 12;
#X obj 83 55 * 2;
#X obj 184 51 loadbang;
#X msg 184 73 0;
#X obj 184 117 s dspon;
#X connect 0 0 3 0;
#X connect 0 0 6 0;
#X connect 2 0 0 0;
#X connect 3 0 2 0;
#X connect 4 0 5 0;
#X connect 5 0 0 0;
#X coords 0 -1 1 1 99 17 2 183 96;
#X restore 6 106 pd dsponofftoggle;
#N canvas 0 50 1905 1019 opensettingsbutton 0;
#X obj 101 101 tgl 15 0 empty empty open_settings 17 7 0 10 -262144
-1 -1 1 1;
#N canvas 1087 26 823 344 settings 0;
#X obj 83 62 tgl 15 0 empty dsponoff empty 17 7 0 10 -262144 -1 -1
1 1;
#X msg 83 82 \; pd dsp \$1;
#X msg 83 33 1;
#X msg 676 85 vis \$1;
#X obj 676 33 r openclose;
#X text 80 13 dsp on/off;
#X text 219 23 dac control mixer;
#N canvas 0 0 1905 1019.13 matrix 0;
#N canvas 0 50 1923 1037 togglesignal 0;
#X obj 34 268 inlet~;
#X obj 34 290 *~;
#X obj 34 312 outlet~;
#X obj 101 128 select 0 1;
#X floatatom 101 274 6 0 0 0 - - -, f 6;
#X obj 101 228 line;
#X obj 101 250 / 127;
#X msg 101 153 127 \, 0 70, f 3;
#X msg 129 173 0 \, 127 70, f 3;
#X obj 101 101 tgl 15 0 empty empty empty 17 7 0 10 -262144 -1 -1 0
1;
#X connect 0 0 1 0;
#X connect 1 0 2 0;
#X connect 3 0 7 0;
#X connect 3 1 8 0;
#X connect 4 0 1 1;
#X connect 5 0 6 0;
#X connect 6 0 4 0;
#X connect 7 0 5 0;
#X connect 8 0 5 0;
#X connect 9 0 3 0;
#X coords 0 -1 1 1 17 17 2 100 100;
#X restore 147 55 pd togglesignal;
#N canvas 0 50 1923 1037 togglesignal 0;
#X obj 34 268 inlet~;
#X obj 34 290 *~;
#X obj 34 312 outlet~;
#X obj 101 128 select 0 1;
#X floatatom 101 274 6 0 0 0 - - -, f 6;
#X obj 101 228 line;
#X obj 101 250 / 127;
#X msg 101 153 127 \, 0 70, f 3;
#X msg 129 173 0 \, 127 70, f 3;
#X obj 101 101 tgl 15 0 empty empty empty 17 7 0 10 -262144 -1 -1 0
1;
#X connect 0 0 1 0;
#X connect 1 0 2 0;
#X connect 3 0 7 0;
#X connect 3 1 8 0;
#X connect 4 0 1 1;
#X connect 5 0 6 0;
#X connect 6 0 4 0;
#X connect 7 0 5 0;
#X connect 8 0 5 0;
#X connect 9 0 3 0;
#X coords 0 -1 1 1 17 17 2 100 100;
#X restore 167 55 pd togglesignal;
#N canvas 0 50 1923 1037 togglesignal 0;
#X obj 34 268 inlet~;
#X obj 34 290 *~;
#X obj 34 312 outlet~;
#X obj 101 128 select 0 1;
#X floatatom 101 274 6 0 0 0 - - -, f 6;
#X obj 101 228 line;
#X obj 101 250 / 127;
#X msg 101 153 127 \, 0 70, f 3;
#X msg 129 173 0 \, 127 70, f 3;
#X obj 101 101 tgl 15 0 empty empty empty 17 7 0 10 -262144 -1 -1 0
1;
#X connect 0 0 1 0;
#X connect 1 0 2 0;
#X connect 3 0 7 0;
#X connect 3 1 8 0;
#X connect 4 0 1 1;
#X connect 5 0 6 0;
#X connect 6 0 4 0;
#X connect 7 0 5 0;
#X connect 8 0 5 0;
#X connect 9 0 3 0;
#X coords 0 -1 1 1 17 17 2 100 100;
#X restore 187 55 pd togglesignal;
#N canvas 0 50 1923 1037 togglesignal 0;
#X obj 34 268 inlet~;
#X obj 34 290 *~;
#X obj 34 312 outlet~;
#X obj 101 128 select 0 1;
#X floatatom 101 274 6 0 0 0 - - -, f 6;
#X obj 101 228 line;
#X obj 101 250 / 127;
#X msg 101 153 127 \, 0 70, f 3;
#X msg 129 173 0 \, 127 70, f 3;
#X obj 101 101 tgl 15 0 empty empty empty 17 7 0 10 -262144 -1 -1 0
1;
#X connect 0 0 1 0;
#X connect 1 0 2 0;
#X connect 3 0 7 0;
#X connect 3 1 8 0;
#X connect 4 0 1 1;
#X connect 5 0 6 0;
#X connect 6 0 4 0;
#X connect 7 0 5 0;
#X connect 8 0 5 0;
#X connect 9 0 3 0;
#X coords 0 -1 1 1 17 17 2 100 100;
#X restore 207 55 pd togglesignal;
#N canvas 0 50 1923 1037 togglesignal 0;
#X obj 34 268 inlet~;
#X obj 34 290 *~;
#X obj 34 312 outlet~;
#X obj 101 128 select 0 1;
#X floatatom 101 274 6 0 0 0 - - -, f 6;
#X obj 101 228 line;
#X obj 101 250 / 127;
#X msg 101 153 127 \, 0 70, f 3;
#X msg 129 173 0 \, 127 70, f 3;
#X obj 101 101 tgl 15 0 empty empty empty 17 7 0 10 -262144 -1 -1 0
1;
#X connect 0 0 1 0;
#X connect 1 0 2 0;
#X connect 3 0 7 0;
#X connect 3 1 8 0;
#X connect 4 0 1 1;
#X connect 5 0 6 0;
#X connect 6 0 4 0;
#X connect 7 0 5 0;
#X connect 8 0 5 0;
#X connect 9 0 3 0;
#X coords 0 -1 1 1 17 17 2 100 100;
#X restore 227 55 pd togglesignal;
#N canvas 0 50 1923 1037 togglesignal 0;
#X obj 34 268 inlet~;
#X obj 34 290 *~;
#X obj 34 312 outlet~;
#X obj 101 128 select 0 1;
#X floatatom 101 274 6 0 0 0 - - -, f 6;
#X obj 101 228 line;
#X obj 101 250 / 127;
#X msg 101 153 127 \, 0 70, f 3;
#X msg 129 173 0 \, 127 70, f 3;
#X obj 101 101 tgl 15 0 empty empty empty 17 7 0 10 -262144 -1 -1 0
1;
#X connect 0 0 1 0;
#X connect 1 0 2 0;
#X connect 3 0 7 0;
#X connect 3 1 8 0;
#X connect 4 0 1 1;
#X connect 5 0 6 0;
#X connect 6 0 4 0;
#X connect 7 0 5 0;
#X connect 8 0 5 0;
#X connect 9 0 3 0;
#X coords 0 -1 1 1 17 17 2 100 100;
#X restore 247 55 pd togglesignal;
#N canvas 0 50 1923 1037 togglesignal 0;
#X obj 34 268 inlet~;
#X obj 34 290 *~;
#X obj 34 312 outlet~;
#X obj 101 128 select 0 1;
#X floatatom 101 274 6 0 0 0 - - -, f 6;
#X obj 101 228 line;
#X obj 101 250 / 127;
#X msg 101 153 127 \, 0 70, f 3;
#X msg 129 173 0 \, 127 70, f 3;
#X obj 101 101 tgl 15 0 empty empty empty 17 7 0 10 -262144 -1 -1 0
1;
#X connect 0 0 1 0;
#X connect 1 0 2 0;
#X connect 3 0 7 0;
#X connect 3 1 8 0;
#X connect 4 0 1 1;
#X connect 5 0 6 0;
#X connect 6 0 4 0;
#X connect 7 0 5 0;
#X connect 8 0 5 0;
#X connect 9 0 3 0;
#X coords 0 -1 1 1 17 17 2 100 100;
#X restore 267 55 pd togglesignal;
#N canvas 0 50 1923 1037 togglesignal 0;
#X obj 34 268 inlet~;
#X obj 34 290 *~;
#X obj 34 312 outlet~;
#X obj 101 128 select 0 1;
#X floatatom 101 274 6 0 0 0 - - -, f 6;
#X obj 101 228 line;
#X obj 101 250 / 127;
#X msg 101 153 127 \, 0 70, f 3;
#X msg 129 173 0 \, 127 70, f 3;
#X obj 101 101 tgl 15 0 empty empty empty 17 7 0 10 -262144 -1 -1 0
1;
#X connect 0 0 1 0;
#X connect 1 0 2 0;
#X connect 3 0 7 0;
#X connect 3 1 8 0;
#X connect 4 0 1 1;
#X connect 5 0 6 0;
#X connect 6 0 4 0;
#X connect 7 0 5 0;
#X connect 8 0 5 0;
#X connect 9 0 3 0;
#X coords 0 -1 1 1 17 17 2 100 100;
#X restore 127 75 pd togglesignal;
#N canvas 0 50 1923 1037 togglesignal 0;
#X obj 34 268 inlet~;
#X obj 34 290 *~;
#X obj 34 312 outlet~;
#X obj 101 128 select 0 1;
#X floatatom 101 274 6 0 0 0 - - -, f 6;
#X obj 101 228 line;
#X obj 101 250 / 127;
#X msg 101 153 127 \, 0 70, f 3;
#X msg 129 173 0 \, 127 70, f 3;
#X obj 101 101 tgl 15 0 empty empty empty 17 7 0 10 -262144 -1 -1 0
1;
#X connect 0 0 1 0;
#X connect 1 0 2 0;
#X connect 3 0 7 0;
#X connect 3 1 8 0;
#X connect 4 0 1 1;
#X connect 5 0 6 0;
#X connect 6 0 4 0;
#X connect 7 0 5 0;
#X connect 8 0 5 0;
#X connect 9 0 3 0;
#X coords 0 -1 1 1 17 17 2 100 100;
#X restore 167 75 pd togglesignal;
#N canvas 0 50 1923 1037 togglesignal 0;
#X obj 34 268 inlet~;
#X obj 34 290 *~;
#X obj 34 312 outlet~;
#X obj 101 128 select 0 1;
#X floatatom 101 274 6 0 0 0 - - -, f 6;
#X obj 101 228 line;
#X obj 101 250 / 127;
#X msg 101 153 127 \, 0 70, f 3;
#X msg 129 173 0 \, 127 70, f 3;
#X obj 101 101 tgl 15 0 empty empty empty 17 7 0 10 -262144 -1 -1 0
1;
#X connect 0 0 1 0;
#X connect 1 0 2 0;
#X connect 3 0 7 0;
#X connect 3 1 8 0;
#X connect 4 0 1 1;
#X connect 5 0 6 0;
#X connect 6 0 4 0;
#X connect 7 0 5 0;
#X connect 8 0 5 0;
#X connect 9 0 3 0;
#X coords 0 -1 1 1 17 17 2 100 100;
#X restore 187 75 pd togglesignal;
#N canvas 0 50 1923 1037 togglesignal 0;
#X obj 34 268 inlet~;
#X obj 34 290 *~;
#X obj 34 312 outlet~;
#X obj 101 128 select 0 1;
#X floatatom 101 274 6 0 0 0 - - -, f 6;
#X obj 101 228 line;
#X obj 101 250 / 127;
#X msg 101 153 127 \, 0 70, f 3;
#X msg 129 173 0 \, 127 70, f 3;
#X obj 101 101 tgl 15 0 empty empty empty 17 7 0 10 -262144 -1 -1 0
1;
#X connect 0 0 1 0;
#X connect 1 0 2 0;
#X connect 3 0 7 0;
#X connect 3 1 8 0;
#X connect 4 0 1 1;
#X connect 5 0 6 0;
#X connect 6 0 4 0;
#X connect 7 0 5 0;
#X connect 8 0 5 0;
#X connect 9 0 3 0;
#X coords 0 -1 1 1 17 17 2 100 100;
#X restore 207 75 pd togglesignal;
#N canvas 0 50 1923 1037 togglesignal 0;
#X obj 34 268 inlet~;
#X obj 34 290 *~;
#X obj 34 312 outlet~;
#X obj 101 128 select 0 1;
#X floatatom 101 274 6 0 0 0 - - -, f 6;
#X obj 101 228 line;
#X obj 101 250 / 127;
#X msg 101 153 127 \, 0 70, f 3;
#X msg 129 173 0 \, 127 70, f 3;
#X obj 101 101 tgl 15 0 empty empty empty 17 7 0 10 -262144 -1 -1 0
1;
#X connect 0 0 1 0;
#X connect 1 0 2 0;
#X connect 3 0 7 0;
#X connect 3 1 8 0;
#X connect 4 0 1 1;
#X connect 5 0 6 0;
#X connect 6 0 4 0;
#X connect 7 0 5 0;
#X connect 8 0 5 0;
#X connect 9 0 3 0;
#X coords 0 -1 1 1 17 17 2 100 100;
#X restore 227 75 pd togglesignal;
#N canvas 0 50 1923 1037 togglesignal 0;
#X obj 34 268 inlet~;
#X obj 34 290 *~;
#X obj 34 312 outlet~;
#X obj 101 128 select 0 1;
#X floatatom 101 274 6 0 0 0 - - -, f 6;
#X obj 101 228 line;
#X obj 101 250 / 127;
#X msg 101 153 127 \, 0 70, f 3;
#X msg 129 173 0 \, 127 70, f 3;
#X obj 101 101 tgl 15 0 empty empty empty 17 7 0 10 -262144 -1 -1 0
1;
#X connect 0 0 1 0;
#X connect 1 0 2 0;
#X connect 3 0 7 0;
#X connect 3 1 8 0;
#X connect 4 0 1 1;
#X connect 5 0 6 0;
#X connect 6 0 4 0;
#X connect 7 0 5 0;
#X connect 8 0 5 0;
#X connect 9 0 3 0;
#X coords 0 -1 1 1 17 17 2 100 100;
#X restore 247 75 pd togglesignal;
#N canvas 0 50 1923 1037 togglesignal 0;
#X obj 34 268 inlet~;
#X obj 34 290 *~;
#X obj 34 312 outlet~;
#X obj 101 128 select 0 1;
#X floatatom 101 274 6 0 0 0 - - -, f 6;
#X obj 101 228 line;
#X obj 101 250 / 127;
#X msg 101 153 127 \, 0 70, f 3;
#X msg 129 173 0 \, 127 70, f 3;
#X obj 101 101 tgl 15 0 empty empty empty 17 7 0 10 -262144 -1 -1 0
1;
#X connect 0 0 1 0;
#X connect 1 0 2 0;
#X connect 3 0 7 0;
#X connect 3 1 8 0;
#X connect 4 0 1 1;
#X connect 5 0 6 0;
#X connect 6 0 4 0;
#X connect 7 0 5 0;
#X connect 8 0 5 0;
#X connect 9 0 3 0;
#X coords 0 -1 1 1 17 17 2 100 100;
#X restore 267 75 pd togglesignal;
#N canvas 0 50 1923 1037 togglesignal 0;
#X obj 34 268 inlet~;
#X obj 34 290 *~;
#X obj 34 312 outlet~;
#X obj 101 128 select 0 1;
#X floatatom 101 274 6 0 0 0 - - -, f 6;
#X obj 101 228 line;
#X obj 101 250 / 127;
#X msg 101 153 127 \, 0 70, f 3;
#X msg 129 173 0 \, 127 70, f 3;
#X obj 101 101 tgl 15 0 empty empty empty 17 7 0 10 -262144 -1 -1 0
1;
#X connect 0 0 1 0;
#X connect 1 0 2 0;
#X connect 3 0 7 0;
#X connect 3 1 8 0;
#X connect 4 0 1 1;
#X connect 5 0 6 0;
#X connect 6 0 4 0;
#X connect 7 0 5 0;
#X connect 8 0 5 0;
#X connect 9 0 3 0;
#X coords 0 -1 1 1 17 17 2 100 100;
#X restore 127 95 pd togglesignal;
#N canvas 0 50 1923 1037 togglesignal 0;
#X obj 34 268 inlet~;
#X obj 34 290 *~;
#X obj 34 312 outlet~;
#X obj 101 128 select 0 1;
#X floatatom 101 274 6 0 0 0 - - -, f 6;
#X obj 101 228 line;
#X obj 101 250 / 127;
#X msg 101 153 127 \, 0 70, f 3;
#X msg 129 173 0 \, 127 70, f 3;
#X obj 101 101 tgl 15 0 empty empty empty 17 7 0 10 -262144 -1 -1 0
1;
#X connect 0 0 1 0;
#X connect 1 0 2 0;
#X connect 3 0 7 0;
#X connect 3 1 8 0;
#X connect 4 0 1 1;
#X connect 5 0 6 0;
#X connect 6 0 4 0;
#X connect 7 0 5 0;
#X connect 8 0 5 0;
#X connect 9 0 3 0;
#X coords 0 -1 1 1 17 17 2 100 100;
#X restore 147 95 pd togglesignal;
#N canvas 0 50 1923 1037 togglesignal 0;
#X obj 34 268 inlet~;
#X obj 34 290 *~;
#X obj 34 312 outlet~;
#X obj 101 128 select 0 1;
#X floatatom 101 274 6 0 0 0 - - -, f 6;
#X obj 101 228 line;
#X obj 101 250 / 127;
#X msg 101 153 127 \, 0 70, f 3;
#X msg 129 173 0 \, 127 70, f 3;
#X obj 101 101 tgl 15 0 empty empty empty 17 7 0 10 -262144 -1 -1 0
1;
#X connect 0 0 1 0;
#X connect 1 0 2 0;
#X connect 3 0 7 0;
#X connect 3 1 8 0;
#X connect 4 0 1 1;
#X connect 5 0 6 0;
#X connect 6 0 4 0;
#X connect 7 0 5 0;
#X connect 8 0 5 0;
#X connect 9 0 3 0;
#X coords 0 -1 1 1 17 17 2 100 100;
#X restore 187 95 pd togglesignal;
#N canvas 0 50 1923 1037 togglesignal 0;
#X obj 34 268 inlet~;
#X obj 34 290 *~;
#X obj 34 312 outlet~;
#X obj 101 128 select 0 1;
#X floatatom 101 274 6 0 0 0 - - -, f 6;
#X obj 101 228 line;
#X obj 101 250 / 127;
#X msg 101 153 127 \, 0 70, f 3;
#X msg 129 173 0 \, 127 70, f 3;
#X obj 101 101 tgl 15 0 empty empty empty 17 7 0 10 -262144 -1 -1 0
1;
#X connect 0 0 1 0;
#X connect 1 0 2 0;
#X connect 3 0 7 0;
#X connect 3 1 8 0;
#X connect 4 0 1 1;
#X connect 5 0 6 0;
#X connect 6 0 4 0;
#X connect 7 0 5 0;
#X connect 8 0 5 0;
#X connect 9 0 3 0;
#X coords 0 -1 1 1 17 17 2 100 100;
#X restore 207 95 pd togglesignal;
#N canvas 0 50 1923 1037 togglesignal 0;
#X obj 34 268 inlet~;
#X obj 34 290 *~;
#X obj 34 312 outlet~;
#X obj 101 128 select 0 1;
#X floatatom 101 274 6 0 0 0 - - -, f 6;
#X obj 101 228 line;
#X obj 101 250 / 127;
#X msg 101 153 127 \, 0 70, f 3;
#X msg 129 173 0 \, 127 70, f 3;
#X obj 101 101 tgl 15 0 empty empty empty 17 7 0 10 -262144 -1 -1 0
1;
#X connect 0 0 1 0;
#X connect 1 0 2 0;
#X connect 3 0 7 0;
#X connect 3 1 8 0;
#X connect 4 0 1 1;
#X connect 5 0 6 0;
#X connect 6 0 4 0;
#X connect 7 0 5 0;
#X connect 8 0 5 0;
#X connect 9 0 3 0;
#X coords 0 -1 1 1 17 17 2 100 100;
#X restore 227 95 pd togglesignal;
#N canvas 0 50 1923 1037 togglesignal 0;
#X obj 34 268 inlet~;
#X obj 34 290 *~;
#X obj 34 312 outlet~;
#X obj 101 128 select 0 1;
#X floatatom 101 274 6 0 0 0 - - -, f 6;
#X obj 101 228 line;
#X obj 101 250 / 127;
#X msg 101 153 127 \, 0 70, f 3;
#X msg 129 173 0 \, 127 70, f 3;
#X obj 101 101 tgl 15 0 empty empty empty 17 7 0 10 -262144 -1 -1 0
1;
#X connect 0 0 1 0;
#X connect 1 0 2 0;
#X connect 3 0 7 0;
#X connect 3 1 8 0;
#X connect 4 0 1 1;
#X connect 5 0 6 0;
#X connect 6 0 4 0;
#X connect 7 0 5 0;
#X connect 8 0 5 0;
#X connect 9 0 3 0;
#X coords 0 -1 1 1 17 17 2 100 100;
#X restore 247 95 pd togglesignal;
#N canvas 0 50 1923 1037 togglesignal 0;
#X obj 34 268 inlet~;
#X obj 34 290 *~;
#X obj 34 312 outlet~;
#X obj 101 128 select 0 1;
#X floatatom 101 274 6 0 0 0 - - -, f 6;
#X obj 101 228 line;
#X obj 101 250 / 127;
#X msg 101 153 127 \, 0 70, f 3;
#X msg 129 173 0 \, 127 70, f 3;
#X obj 101 101 tgl 15 0 empty empty empty 17 7 0 10 -262144 -1 -1 0
1;
#X connect 0 0 1 0;
#X connect 1 0 2 0;
#X connect 3 0 7 0;
#X connect 3 1 8 0;
#X connect 4 0 1 1;
#X connect 5 0 6 0;
#X connect 6 0 4 0;
#X connect 7 0 5 0;
#X connect 8 0 5 0;
#X connect 9 0 3 0;
#X coords 0 -1 1 1 17 17 2 100 100;
#X restore 267 95 pd togglesignal;
#N canvas 0 50 1923 1037 togglesignal 0;
#X obj 34 268 inlet~;
#X obj 34 290 *~;
#X obj 34 312 outlet~;
#X obj 101 128 select 0 1;
#X floatatom 101 274 6 0 0 0 - - -, f 6;
#X obj 101 228 line;
#X obj 101 250 / 127;
#X msg 101 153 127 \, 0 70, f 3;
#X msg 129 173 0 \, 127 70, f 3;
#X obj 101 101 tgl 15 0 empty empty empty 17 7 0 10 -262144 -1 -1 0
1;
#X connect 0 0 1 0;
#X connect 1 0 2 0;
#X connect 3 0 7 0;
#X connect 3 1 8 0;
#X connect 4 0 1 1;
#X connect 5 0 6 0;
#X connect 6 0 4 0;
#X connect 7 0 5 0;
#X connect 8 0 5 0;
#X connect 9 0 3 0;
#X coords 0 -1 1 1 17 17 2 100 100;
#X restore 127 115 pd togglesignal;
#N canvas 0 50 1923 1037 togglesignal 0;
#X obj 34 268 inlet~;
#X obj 34 290 *~;
#X obj 34 312 outlet~;
#X obj 101 128 select 0 1;
#X floatatom 101 274 6 0 0 0 - - -, f 6;
#X obj 101 228 line;
#X obj 101 250 / 127;
#X msg 101 153 127 \, 0 70, f 3;
#X msg 129 173 0 \, 127 70, f 3;
#X obj 101 101 tgl 15 0 empty empty empty 17 7 0 10 -262144 -1 -1 0
1;
#X connect 0 0 1 0;
#X connect 1 0 2 0;
#X connect 3 0 7 0;
#X connect 3 1 8 0;
#X connect 4 0 1 1;
#X connect 5 0 6 0;
#X connect 6 0 4 0;
#X connect 7 0 5 0;
#X connect 8 0 5 0;
#X connect 9 0 3 0;
#X coords 0 -1 1 1 17 17 2 100 100;
#X restore 147 115 pd togglesignal;
#N canvas 0 50 1923 1037 togglesignal 0;
#X obj 34 268 inlet~;
#X obj 34 290 *~;
#X obj 34 312 outlet~;
#X obj 101 128 select 0 1;
#X floatatom 101 274 6 0 0 0 - - -, f 6;
#X obj 101 228 line;
#X obj 101 250 / 127;
#X msg 101 153 127 \, 0 70, f 3;
#X msg 129 173 0 \, 127 70, f 3;
#X obj 101 101 tgl 15 0 empty empty empty 17 7 0 10 -262144 -1 -1 0
1;
#X connect 0 0 1 0;
#X connect 1 0 2 0;
#X connect 3 0 7 0;
#X connect 3 1 8 0;
#X connect 4 0 1 1;
#X connect 5 0 6 0;
#X connect 6 0 4 0;
#X connect 7 0 5 0;
#X connect 8 0 5 0;
#X connect 9 0 3 0;
#X coords 0 -1 1 1 17 17 2 100 100;
#X restore 167 115 pd togglesignal;
#N canvas 0 50 1923 1037 togglesignal 0;
#X obj 34 268 inlet~;
#X obj 34 290 *~;
#X obj 34 312 outlet~;
#X obj 101 128 select 0 1;
#X floatatom 101 274 6 0 0 0 - - -, f 6;
#X obj 101 228 line;
#X obj 101 250 / 127;
#X msg 101 153 127 \, 0 70, f 3;
#X msg 129 173 0 \, 127 70, f 3;
#X obj 101 101 tgl 15 0 empty empty empty 17 7 0 10 -262144 -1 -1 0
1;
#X connect 0 0 1 0;
#X connect 1 0 2 0;
#X connect 3 0 7 0;
#X connect 3 1 8 0;
#X connect 4 0 1 1;
#X connect 5 0 6 0;
#X connect 6 0 4 0;
#X connect 7 0 5 0;
#X connect 8 0 5 0;
#X connect 9 0 3 0;
#X coords 0 -1 1 1 17 17 2 100 100;
#X restore 207 115 pd togglesignal;
#N canvas 0 50 1923 1037 togglesignal 0;
#X obj 34 268 inlet~;
#X obj 34 290 *~;
#X obj 34 312 outlet~;
#X obj 101 128 select 0 1;
#X floatatom 101 274 6 0 0 0 - - -, f 6;
#X obj 101 228 line;
#X obj 101 250 / 127;
#X msg 101 153 127 \, 0 70, f 3;
#X msg 129 173 0 \, 127 70, f 3;
#X obj 101 101 tgl 15 0 empty empty empty 17 7 0 10 -262144 -1 -1 0
1;
#X connect 0 0 1 0;
#X connect 1 0 2 0;
#X connect 3 0 7 0;
#X connect 3 1 8 0;
#X connect 4 0 1 1;
#X connect 5 0 6 0;
#X connect 6 0 4 0;
#X connect 7 0 5 0;
#X connect 8 0 5 0;
#X connect 9 0 3 0;
#X coords 0 -1 1 1 17 17 2 100 100;
#X restore 227 115 pd togglesignal;
#N canvas 0 50 1923 1037 togglesignal 0;
#X obj 34 268 inlet~;
#X obj 34 290 *~;
#X obj 34 312 outlet~;
#X obj 101 128 select 0 1;
#X floatatom 101 274 6 0 0 0 - - -, f 6;
#X obj 101 228 line;
#X obj 101 250 / 127;
#X msg 101 153 127 \, 0 70, f 3;
#X msg 129 173 0 \, 127 70, f 3;
#X obj 101 101 tgl 15 0 empty empty empty 17 7 0 10 -262144 -1 -1 0
1;
#X connect 0 0 1 0;
#X connect 1 0 2 0;
#X connect 3 0 7 0;
#X connect 3 1 8 0;
#X connect 4 0 1 1;
#X connect 5 0 6 0;
#X connect 6 0 4 0;
#X connect 7 0 5 0;
#X connect 8 0 5 0;
#X connect 9 0 3 0;
#X coords 0 -1 1 1 17 17 2 100 100;
#X restore 247 115 pd togglesignal;
#N canvas 0 50 1923 1037 togglesignal 0;
#X obj 34 268 inlet~;
#X obj 34 290 *~;
#X obj 34 312 outlet~;
#X obj 101 128 select 0 1;
#X floatatom 101 274 6 0 0 0 - - -, f 6;
#X obj 101 228 line;
#X obj 101 250 / 127;
#X msg 101 153 127 \, 0 70, f 3;
#X msg 129 173 0 \, 127 70, f 3;
#X obj 101 101 tgl 15 0 empty empty empty 17 7 0 10 -262144 -1 -1 0
1;
#X connect 0 0 1 0;
#X connect 1 0 2 0;
#X connect 3 0 7 0;
#X connect 3 1 8 0;
#X connect 4 0 1 1;
#X connect 5 0 6 0;
#X connect 6 0 4 0;
#X connect 7 0 5 0;
#X connect 8 0 5 0;
#X connect 9 0 3 0;
#X coords 0 -1 1 1 17 17 2 100 100;
#X restore 267 115 pd togglesignal;
#N canvas 0 50 1923 1037 togglesignal 0;
#X obj 34 268 inlet~;
#X obj 34 290 *~;
#X obj 34 312 outlet~;
#X obj 101 128 select 0 1;
#X floatatom 101 274 6 0 0 0 - - -, f 6;
#X obj 101 228 line;
#X obj 101 250 / 127;
#X msg 101 153 127 \, 0 70, f 3;
#X msg 129 173 0 \, 127 70, f 3;
#X obj 101 101 tgl 15 0 empty empty empty 17 7 0 10 -262144 -1 -1 0
1;
#X connect 0 0 1 0;
#X connect 1 0 2 0;
#X connect 3 0 7 0;
#X connect 3 1 8 0;
#X connect 4 0 1 1;
#X connect 5 0 6 0;
#X connect 6 0 4 0;
#X connect 7 0 5 0;
#X connect 8 0 5 0;
#X connect 9 0 3 0;
#X coords 0 -1 1 1 17 17 2 100 100;
#X restore 127 135 pd togglesignal;
#N canvas 0 50 1923 1037 togglesignal 0;
#X obj 34 268 inlet~;
#X obj 34 290 *~;
#X obj 34 312 outlet~;
#X obj 101 128 select 0 1;
#X floatatom 101 274 6 0 0 0 - - -, f 6;
#X obj 101 228 line;
#X obj 101 250 / 127;
#X msg 101 153 127 \, 0 70, f 3;
#X msg 129 173 0 \, 127 70, f 3;
#X obj 101 101 tgl 15 0 empty empty empty 17 7 0 10 -262144 -1 -1 0
1;
#X connect 0 0 1 0;
#X connect 1 0 2 0;
#X connect 3 0 7 0;
#X connect 3 1 8 0;
#X connect 4 0 1 1;
#X connect 5 0 6 0;
#X connect 6 0 4 0;
#X connect 7 0 5 0;
#X connect 8 0 5 0;
#X connect 9 0 3 0;
#X coords 0 -1 1 1 17 17 2 100 100;
#X restore 147 135 pd togglesignal;
#N canvas 0 50 1923 1037 togglesignal 0;
#X obj 34 268 inlet~;
#X obj 34 290 *~;
#X obj 34 312 outlet~;
#X obj 101 128 select 0 1;
#X floatatom 101 274 6 0 0 0 - - -, f 6;
#X obj 101 228 line;
#X obj 101 250 / 127;
#X msg 101 153 127 \, 0 70, f 3;
#X msg 129 173 0 \, 127 70, f 3;
#X obj 101 101 tgl 15 0 empty empty empty 17 7 0 10 -262144 -1 -1 0
1;
#X connect 0 0 1 0;
#X connect 1 0 2 0;
#X connect 3 0 7 0;
#X connect 3 1 8 0;
#X connect 4 0 1 1;
#X connect 5 0 6 0;
#X connect 6 0 4 0;
#X connect 7 0 5 0;
#X connect 8 0 5 0;
#X connect 9 0 3 0;
#X coords 0 -1 1 1 17 17 2 100 100;
#X restore 167 135 pd togglesignal;
#N canvas 0 50 1923 1037 togglesignal 0;
#X obj 34 268 inlet~;
#X obj 34 290 *~;
#X obj 34 312 outlet~;
#X obj 101 128 select 0 1;
#X floatatom 101 274 6 0 0 0 - - -, f 6;
#X obj 101 228 line;
#X obj 101 250 / 127;
#X msg 101 153 127 \, 0 70, f 3;
#X msg 129 173 0 \, 127 70, f 3;
#X obj 101 101 tgl 15 0 empty empty empty 17 7 0 10 -262144 -1 -1 0
1;
#X connect 0 0 1 0;
#X connect 1 0 2 0;
#X connect 3 0 7 0;
#X connect 3 1 8 0;
#X connect 4 0 1 1;
#X connect 5 0 6 0;
#X connect 6 0 4 0;
#X connect 7 0 5 0;
#X connect 8 0 5 0;
#X connect 9 0 3 0;
#X coords 0 -1 1 1 17 17 2 100 100;
#X restore 187 135 pd togglesignal;
#N canvas 0 50 1923 1037 togglesignal 0;
#X obj 34 268 inlet~;
#X obj 34 290 *~;
#X obj 34 312 outlet~;
#X obj 101 128 select 0 1;
#X floatatom 101 274 6 0 0 0 - - -, f 6;
#X obj 101 228 line;
#X obj 101 250 / 127;
#X msg 101 153 127 \, 0 70, f 3;
#X msg 129 173 0 \, 127 70, f 3;
#X obj 101 101 tgl 15 0 empty empty empty 17 7 0 10 -262144 -1 -1 0
1;
#X connect 0 0 1 0;
#X connect 1 0 2 0;
#X connect 3 0 7 0;
#X connect 3 1 8 0;
#X connect 4 0 1 1;
#X connect 5 0 6 0;
#X connect 6 0 4 0;
#X connect 7 0 5 0;
#X connect 8 0 5 0;
#X connect 9 0 3 0;
#X coords 0 -1 1 1 17 17 2 100 100;
#X restore 227 135 pd togglesignal;
#N canvas 0 50 1923 1037 togglesignal 0;
#X obj 34 268 inlet~;
#X obj 34 290 *~;
#X obj 34 312 outlet~;
#X obj 101 128 select 0 1;
#X floatatom 101 274 6 0 0 0 - - -, f 6;
#X obj 101 228 line;
#X obj 101 250 / 127;
#X msg 101 153 127 \, 0 70, f 3;
#X msg 129 173 0 \, 127 70, f 3;
#X obj 101 101 tgl 15 0 empty empty empty 17 7 0 10 -262144 -1 -1 0
1;
#X connect 0 0 1 0;
#X connect 1 0 2 0;
#X connect 3 0 7 0;
#X connect 3 1 8 0;
#X connect 4 0 1 1;
#X connect 5 0 6 0;
#X connect 6 0 4 0;
#X connect 7 0 5 0;
#X connect 8 0 5 0;
#X connect 9 0 3 0;
#X coords 0 -1 1 1 17 17 2 100 100;
#X restore 247 135 pd togglesignal;
#N canvas 0 50 1923 1037 togglesignal 0;
#X obj 34 268 inlet~;
#X obj 34 290 *~;
#X obj 34 312 outlet~;
#X obj 101 128 select 0 1;
#X floatatom 101 274 6 0 0 0 - - -, f 6;
#X obj 101 228 line;
#X obj 101 250 / 127;
#X msg 101 153 127 \, 0 70, f 3;
#X msg 129 173 0 \, 127 70, f 3;
#X obj 101 101 tgl 15 0 empty empty empty 17 7 0 10 -262144 -1 -1 0
1;
#X connect 0 0 1 0;
#X connect 1 0 2 0;
#X connect 3 0 7 0;
#X connect 3 1 8 0;
#X connect 4 0 1 1;
#X connect 5 0 6 0;
#X connect 6 0 4 0;
#X connect 7 0 5 0;
#X connect 8 0 5 0;
#X connect 9 0 3 0;
#X coords 0 -1 1 1 17 17 2 100 100;
#X restore 267 135 pd togglesignal;
#N canvas 0 50 1923 1037 togglesignal 0;
#X obj 34 268 inlet~;
#X obj 34 290 *~;
#X obj 34 312 outlet~;
#X obj 101 128 select 0 1;
#X floatatom 101 274 6 0 0 0 - - -, f 6;
#X obj 101 228 line;
#X obj 101 250 / 127;
#X msg 101 153 127 \, 0 70, f 3;
#X msg 129 173 0 \, 127 70, f 3;
#X obj 101 101 tgl 15 0 empty empty empty 17 7 0 10 -262144 -1 -1 0
1;
#X connect 0 0 1 0;
#X connect 1 0 2 0;
#X connect 3 0 7 0;
#X connect 3 1 8 0;
#X connect 4 0 1 1;
#X connect 5 0 6 0;
#X connect 6 0 4 0;
#X connect 7 0 5 0;
#X connect 8 0 5 0;
#X connect 9 0 3 0;
#X coords 0 -1 1 1 17 17 2 100 100;
#X restore 127 155 pd togglesignal;
#N canvas 0 50 1923 1037 togglesignal 0;
#X obj 34 268 inlet~;
#X obj 34 290 *~;
#X obj 34 312 outlet~;
#X obj 101 128 select 0 1;
#X floatatom 101 274 6 0 0 0 - - -, f 6;
#X obj 101 228 line;
#X obj 101 250 / 127;
#X msg 101 153 127 \, 0 70, f 3;
#X msg 129 173 0 \, 127 70, f 3;
#X obj 101 101 tgl 15 0 empty empty empty 17 7 0 10 -262144 -1 -1 0
1;
#X connect 0 0 1 0;
#X connect 1 0 2 0;
#X connect 3 0 7 0;
#X connect 3 1 8 0;
#X connect 4 0 1 1;
#X connect 5 0 6 0;
#X connect 6 0 4 0;
#X connect 7 0 5 0;
#X connect 8 0 5 0;
#X connect 9 0 3 0;
#X coords 0 -1 1 1 17 17 2 100 100;
#X restore 147 155 pd togglesignal;
#N canvas 0 50 1923 1037 togglesignal 0;
#X obj 34 268 inlet~;
#X obj 34 290 *~;
#X obj 34 312 outlet~;
#X obj 101 128 select 0 1;
#X floatatom 101 274 6 0 0 0 - - -, f 6;
#X obj 101 228 line;
#X obj 101 250 / 127;
#X msg 101 153 127 \, 0 70, f 3;
#X msg 129 173 0 \, 127 70, f 3;
#X obj 101 101 tgl 15 0 empty empty empty 17 7 0 10 -262144 -1 -1 0
1;
#X connect 0 0 1 0;
#X connect 1 0 2 0;
#X connect 3 0 7 0;
#X connect 3 1 8 0;
#X connect 4 0 1 1;
#X connect 5 0 6 0;
#X connect 6 0 4 0;
#X connect 7 0 5 0;
#X connect 8 0 5 0;
#X connect 9 0 3 0;
#X coords 0 -1 1 1 17 17 2 100 100;
#X restore 167 155 pd togglesignal;
#N canvas 0 50 1923 1037 togglesignal 0;
#X obj 34 268 inlet~;
#X obj 34 290 *~;
#X obj 34 312 outlet~;
#X obj 101 128 select 0 1;
#X floatatom 101 274 6 0 0 0 - - -, f 6;
#X obj 101 228 line;
#X obj 101 250 / 127;
#X msg 101 153 127 \, 0 70, f 3;
#X msg 129 173 0 \, 127 70, f 3;
#X obj 101 101 tgl 15 0 empty empty empty 17 7 0 10 -262144 -1 -1 0
1;
#X connect 0 0 1 0;
#X connect 1 0 2 0;
#X connect 3 0 7 0;
#X connect 3 1 8 0;
#X connect 4 0 1 1;
#X connect 5 0 6 0;
#X connect 6 0 4 0;
#X connect 7 0 5 0;
#X connect 8 0 5 0;
#X connect 9 0 3 0;
#X coords 0 -1 1 1 17 17 2 100 100;
#X restore 187 155 pd togglesignal;
#N canvas 0 50 1923 1037 togglesignal 0;
#X obj 34 268 inlet~;
#X obj 34 290 *~;
#X obj 34 312 outlet~;
#X obj 101 128 select 0 1;
#X floatatom 101 274 6 0 0 0 - - -, f 6;
#X obj 101 228 line;
#X obj 101 250 / 127;
#X msg 101 153 127 \, 0 70, f 3;
#X msg 129 173 0 \, 127 70, f 3;
#X obj 101 101 tgl 15 0 empty empty empty 17 7 0 10 -262144 -1 -1 0
1;
#X connect 0 0 1 0;
#X connect 1 0 2 0;
#X connect 3 0 7 0;
#X connect 3 1 8 0;
#X connect 4 0 1 1;
#X connect 5 0 6 0;
#X connect 6 0 4 0;
#X connect 7 0 5 0;
#X connect 8 0 5 0;
#X connect 9 0 3 0;
#X coords 0 -1 1 1 17 17 2 100 100;
#X restore 207 155 pd togglesignal;
#N canvas 0 50 1923 1037 togglesignal 0;
#X obj 34 268 inlet~;
#X obj 34 290 *~;
#X obj 34 312 outlet~;
#X obj 101 128 select 0 1;
#X floatatom 101 274 6 0 0 0 - - -, f 6;
#X obj 101 228 line;
#X obj 101 250 / 127;
#X msg 101 153 127 \, 0 70, f 3;
#X msg 129 173 0 \, 127 70, f 3;
#X obj 101 101 tgl 15 0 empty empty empty 17 7 0 10 -262144 -1 -1 0
1;
#X connect 0 0 1 0;
#X connect 1 0 2 0;
#X connect 3 0 7 0;
#X connect 3 1 8 0;
#X connect 4 0 1 1;
#X connect 5 0 6 0;
#X connect 6 0 4 0;
#X connect 7 0 5 0;
#X connect 8 0 5 0;
#X connect 9 0 3 0;
#X coords 0 -1 1 1 17 17 2 100 100;
#X restore 247 155 pd togglesignal;
#N canvas 0 50 1923 1037 togglesignal 0;
#X obj 34 268 inlet~;
#X obj 34 290 *~;
#X obj 34 312 outlet~;
#X obj 101 128 select 0 1;
#X floatatom 101 274 6 0 0 0 - - -, f 6;
#X obj 101 228 line;
#X obj 101 250 / 127;
#X msg 101 153 127 \, 0 70, f 3;
#X msg 129 173 0 \, 127 70, f 3;
#X obj 101 101 tgl 15 0 empty empty empty 17 7 0 10 -262144 -1 -1 0
1;
#X connect 0 0 1 0;
#X connect 1 0 2 0;
#X connect 3 0 7 0;
#X connect 3 1 8 0;
#X connect 4 0 1 1;
#X connect 5 0 6 0;
#X connect 6 0 4 0;
#X connect 7 0 5 0;
#X connect 8 0 5 0;
#X connect 9 0 3 0;
#X coords 0 -1 1 1 17 17 2 100 100;
#X restore 267 155 pd togglesignal;
#N canvas 0 50 1923 1037 togglesignal 0;
#X obj 34 268 inlet~;
#X obj 34 290 *~;
#X obj 34 312 outlet~;
#X obj 101 128 select 0 1;
#X floatatom 101 274 6 0 0 0 - - -, f 6;
#X obj 101 228 line;
#X obj 101 250 / 127;
#X msg 101 153 127 \, 0 70, f 3;
#X msg 129 173 0 \, 127 70, f 3;
#X obj 101 101 tgl 15 0 empty empty empty 17 7 0 10 -262144 -1 -1 0
1;
#X connect 0 0 1 0;
#X connect 1 0 2 0;
#X connect 3 0 7 0;
#X connect 3 1 8 0;
#X connect 4 0 1 1;
#X connect 5 0 6 0;
#X connect 6 0 4 0;
#X connect 7 0 5 0;
#X connect 8 0 5 0;
#X connect 9 0 3 0;
#X coords 0 -1 1 1 17 17 2 100 100;
#X restore 127 175 pd togglesignal;
#N canvas 0 50 1923 1037 togglesignal 0;
#X obj 34 268 inlet~;
#X obj 34 290 *~;
#X obj 34 312 outlet~;
#X obj 101 128 select 0 1;
#X floatatom 101 274 6 0 0 0 - - -, f 6;
#X obj 101 228 line;
#X obj 101 250 / 127;
#X msg 101 153 127 \, 0 70, f 3;
#X msg 129 173 0 \, 127 70, f 3;
#X obj 101 101 tgl 15 0 empty empty empty 17 7 0 10 -262144 -1 -1 0
1;
#X connect 0 0 1 0;
#X connect 1 0 2 0;
#X connect 3 0 7 0;
#X connect 3 1 8 0;
#X connect 4 0 1 1;
#X connect 5 0 6 0;
#X connect 6 0 4 0;
#X connect 7 0 5 0;
#X connect 8 0 5 0;
#X connect 9 0 3 0;
#X coords 0 -1 1 1 17 17 2 100 100;
#X restore 147 175 pd togglesignal;
#N canvas 0 50 1923 1037 togglesignal 0;
#X obj 34 268 inlet~;
#X obj 34 290 *~;
#X obj 34 312 outlet~;
#X obj 101 128 select 0 1;
#X floatatom 101 274 6 0 0 0 - - -, f 6;
#X obj 101 228 line;
#X obj 101 250 / 127;
#X msg 101 153 127 \, 0 70, f 3;
#X msg 129 173 0 \, 127 70, f 3;
#X obj 101 101 tgl 15 0 empty empty empty 17 7 0 10 -262144 -1 -1 0
1;
#X connect 0 0 1 0;
#X connect 1 0 2 0;
#X connect 3 0 7 0;
#X connect 3 1 8 0;
#X connect 4 0 1 1;
#X connect 5 0 6 0;
#X connect 6 0 4 0;
#X connect 7 0 5 0;
#X connect 8 0 5 0;
#X connect 9 0 3 0;
#X coords 0 -1 1 1 17 17 2 100 100;
#X restore 167 175 pd togglesignal;
#N canvas 0 50 1923 1037 togglesignal 0;
#X obj 34 268 inlet~;
#X obj 34 290 *~;
#X obj 34 312 outlet~;
#X obj 101 128 select 0 1;
#X floatatom 101 274 6 0 0 0 - - -, f 6;
#X obj 101 228 line;
#X obj 101 250 / 127;
#X msg 101 153 127 \, 0 70, f 3;
#X msg 129 173 0 \, 127 70, f 3;
#X obj 101 101 tgl 15 0 empty empty empty 17 7 0 10 -262144 -1 -1 0
1;
#X connect 0 0 1 0;
#X connect 1 0 2 0;
#X connect 3 0 7 0;
#X connect 3 1 8 0;
#X connect 4 0 1 1;
#X connect 5 0 6 0;
#X connect 6 0 4 0;
#X connect 7 0 5 0;
#X connect 8 0 5 0;
#X connect 9 0 3 0;
#X coords 0 -1 1 1 17 17 2 100 100;
#X restore 187 175 pd togglesignal;
#N canvas 0 50 1923 1037 togglesignal 0;
#X obj 34 268 inlet~;
#X obj 34 290 *~;
#X obj 34 312 outlet~;
#X obj 101 128 select 0 1;
#X floatatom 101 274 6 0 0 0 - - -, f 6;
#X obj 101 228 line;
#X obj 101 250 / 127;
#X msg 101 153 127 \, 0 70, f 3;
#X msg 129 173 0 \, 127 70, f 3;
#X obj 101 101 tgl 15 0 empty empty empty 17 7 0 10 -262144 -1 -1 0
1;
#X connect 0 0 1 0;
#X connect 1 0 2 0;
#X connect 3 0 7 0;
#X connect 3 1 8 0;
#X connect 4 0 1 1;
#X connect 5 0 6 0;
#X connect 6 0 4 0;
#X connect 7 0 5 0;
#X connect 8 0 5 0;
#X connect 9 0 3 0;
#X coords 0 -1 1 1 17 17 2 100 100;
#X restore 207 175 pd togglesignal;
#N canvas 0 50 1923 1037 togglesignal 0;
#X obj 34 268 inlet~;
#X obj 34 290 *~;
#X obj 34 312 outlet~;
#X obj 101 128 select 0 1;
#X floatatom 101 274 6 0 0 0 - - -, f 6;
#X obj 101 228 line;
#X obj 101 250 / 127;
#X msg 101 153 127 \, 0 70, f 3;
#X msg 129 173 0 \, 127 70, f 3;
#X obj 101 101 tgl 15 0 empty empty empty 17 7 0 10 -262144 -1 -1 0
1;
#X connect 0 0 1 0;
#X connect 1 0 2 0;
#X connect 3 0 7 0;
#X connect 3 1 8 0;
#X connect 4 0 1 1;
#X connect 5 0 6 0;
#X connect 6 0 4 0;
#X connect 7 0 5 0;
#X connect 8 0 5 0;
#X connect 9 0 3 0;
#X coords 0 -1 1 1 17 17 2 100 100;
#X restore 227 175 pd togglesignal;
#N canvas 0 50 1923 1037 togglesignal 0;
#X obj 34 268 inlet~;
#X obj 34 290 *~;
#X obj 34 312 outlet~;
#X obj 101 128 select 0 1;
#X floatatom 101 274 6 0 0 0 - - -, f 6;
#X obj 101 228 line;
#X obj 101 250 / 127;
#X msg 101 153 127 \, 0 70, f 3;
#X msg 129 173 0 \, 127 70, f 3;
#X obj 101 101 tgl 15 0 empty empty empty 17 7 0 10 -262144 -1 -1 0
1;
#X connect 0 0 1 0;
#X connect 1 0 2 0;
#X connect 3 0 7 0;
#X connect 3 1 8 0;
#X connect 4 0 1 1;
#X connect 5 0 6 0;
#X connect 6 0 4 0;
#X connect 7 0 5 0;
#X connect 8 0 5 0;
#X connect 9 0 3 0;
#X coords 0 -1 1 1 17 17 2 100 100;
#X restore 267 175 pd togglesignal;
#N canvas 0 50 1905 1019 togglesignal 0;
#X obj 34 268 inlet~;
#X obj 34 290 *~;
#X obj 34 312 outlet~;
#X obj 101 128 select 0 1;
#X floatatom 101 274 6 0 0 0 - - -, f 6;
#X obj 101 228 line;
#X obj 101 250 / 127;
#X msg 101 153 127 \, 0 70, f 3;
#X msg 129 173 0 \, 127 70, f 3;
#X obj 101 101 tgl 15 0 empty empty empty 17 7 0 10 -262144 -1 -1 0
1;
#X connect 0 0 1 0;
#X connect 1 0 2 0;
#X connect 3 0 7 0;
#X connect 3 1 8 0;
#X connect 4 0 1 1;
#X connect 5 0 6 0;
#X connect 6 0 4 0;
#X connect 7 0 5 0;
#X connect 8 0 5 0;
#X connect 9 0 3 0;
#X coords 0 -1 1 1 17 17 2 100 100;
#X restore 127 195 pd togglesignal;
#N canvas 0 50 1923 1037 togglesignal 0;
#X obj 34 268 inlet~;
#X obj 34 290 *~;
#X obj 34 312 outlet~;
#X obj 101 128 select 0 1;
#X floatatom 101 274 6 0 0 0 - - -, f 6;
#X obj 101 228 line;
#X obj 101 250 / 127;
#X msg 101 153 127 \, 0 70, f 3;
#X msg 129 173 0 \, 127 70, f 3;
#X obj 101 101 tgl 15 0 empty empty empty 17 7 0 10 -262144 -1 -1 0
1;
#X connect 0 0 1 0;
#X connect 1 0 2 0;
#X connect 3 0 7 0;
#X connect 3 1 8 0;
#X connect 4 0 1 1;
#X connect 5 0 6 0;
#X connect 6 0 4 0;
#X connect 7 0 5 0;
#X connect 8 0 5 0;
#X connect 9 0 3 0;
#X coords 0 -1 1 1 17 17 2 100 100;
#X restore 147 195 pd togglesignal;
#N canvas 0 50 1923 1037 togglesignal 0;
#X obj 34 268 inlet~;
#X obj 34 290 *~;
#X obj 34 312 outlet~;
#X obj 101 128 select 0 1;
#X floatatom 101 274 6 0 0 0 - - -, f 6;
#X obj 101 228 line;
#X obj 101 250 / 127;
#X msg 101 153 127 \, 0 70, f 3;
#X msg 129 173 0 \, 127 70, f 3;
#X obj 101 101 tgl 15 0 empty empty empty 17 7 0 10 -262144 -1 -1 0
1;
#X connect 0 0 1 0;
#X connect 1 0 2 0;
#X connect 3 0 7 0;
#X connect 3 1 8 0;
#X connect 4 0 1 1;
#X connect 5 0 6 0;
#X connect 6 0 4 0;
#X connect 7 0 5 0;
#X connect 8 0 5 0;
#X connect 9 0 3 0;
#X coords 0 -1 1 1 17 17 2 100 100;
#X restore 167 195 pd togglesignal;
#N canvas 0 50 1923 1037 togglesignal 0;
#X obj 34 268 inlet~;
#X obj 34 290 *~;
#X obj 34 312 outlet~;
#X obj 101 128 select 0 1;
#X floatatom 101 274 6 0 0 0 - - -, f 6;
#X obj 101 228 line;
#X obj 101 250 / 127;
#X msg 101 153 127 \, 0 70, f 3;
#X msg 129 173 0 \, 127 70, f 3;
#X obj 101 101 tgl 15 0 empty empty empty 17 7 0 10 -262144 -1 -1 0
1;
#X connect 0 0 1 0;
#X connect 1 0 2 0;
#X connect 3 0 7 0;
#X connect 3 1 8 0;
#X connect 4 0 1 1;
#X connect 5 0 6 0;
#X connect 6 0 4 0;
#X connect 7 0 5 0;
#X connect 8 0 5 0;
#X connect 9 0 3 0;
#X coords 0 -1 1 1 17 17 2 100 100;
#X restore 187 195 pd togglesignal;
#N canvas 0 50 1923 1037 togglesignal 0;
#X obj 34 268 inlet~;
#X obj 34 290 *~;
#X obj 34 312 outlet~;
#X obj 101 128 select 0 1;
#X floatatom 101 274 6 0 0 0 - - -, f 6;
#X obj 101 228 line;
#X obj 101 250 / 127;
#X msg 101 153 127 \, 0 70, f 3;
#X msg 129 173 0 \, 127 70, f 3;
#X obj 101 101 tgl 15 0 empty empty empty 17 7 0 10 -262144 -1 -1 0
1;
#X connect 0 0 1 0;
#X connect 1 0 2 0;
#X connect 3 0 7 0;
#X connect 3 1 8 0;
#X connect 4 0 1 1;
#X connect 5 0 6 0;
#X connect 6 0 4 0;
#X connect 7 0 5 0;
#X connect 8 0 5 0;
#X connect 9 0 3 0;
#X coords 0 -1 1 1 17 17 2 100 100;
#X restore 207 195 pd togglesignal;
#N canvas 0 50 1923 1037 togglesignal 0;
#X obj 34 268 inlet~;
#X obj 34 290 *~;
#X obj 34 312 outlet~;
#X obj 101 128 select 0 1;
#X floatatom 101 274 6 0 0 0 - - -, f 6;
#X obj 101 228 line;
#X obj 101 250 / 127;
#X msg 101 153 127 \, 0 70, f 3;
#X msg 129 173 0 \, 127 70, f 3;
#X obj 101 101 tgl 15 0 empty empty empty 17 7 0 10 -262144 -1 -1 0
1;
#X connect 0 0 1 0;
#X connect 1 0 2 0;
#X connect 3 0 7 0;
#X connect 3 1 8 0;
#X connect 4 0 1 1;
#X connect 5 0 6 0;
#X connect 6 0 4 0;
#X connect 7 0 5 0;
#X connect 8 0 5 0;
#X connect 9 0 3 0;
#X coords 0 -1 1 1 17 17 2 100 100;
#X restore 227 195 pd togglesignal;
#N canvas 0 50 1923 1037 togglesignal 0;
#X obj 34 268 inlet~;
#X obj 34 290 *~;
#X obj 34 312 outlet~;
#X obj 101 128 select 0 1;
#X floatatom 101 274 6 0 0 0 - - -, f 6;
#X obj 101 228 line;
#X obj 101 250 / 127;
#X msg 101 153 127 \, 0 70, f 3;
#X msg 129 173 0 \, 127 70, f 3;
#X obj 101 101 tgl 15 0 empty empty empty 17 7 0 10 -262144 -1 -1 0
1;
#X connect 0 0 1 0;
#X connect 1 0 2 0;
#X connect 3 0 7 0;
#X connect 3 1 8 0;
#X connect 4 0 1 1;
#X connect 5 0 6 0;
#X connect 6 0 4 0;
#X connect 7 0 5 0;
#X connect 8 0 5 0;
#X connect 9 0 3 0;
#X coords 0 -1 1 1 17 17 2 100 100;
#X restore 247 195 pd togglesignal;
#X obj 298 78 vsl 15 128 0 127 0 0 empty empty empty 0 -9 0 10 -262144
-1 -1 10000 1;
#X obj 468 211 / 127;
#X obj 468 283 line~;
#X obj 127 350 *~;
#X obj 318 78 vsl 15 128 0 127 0 0 empty empty empty 0 -9 0 10 -262144
-1 -1 10000 1;
#X obj 508 211 / 127;
#X obj 508 283 line~;
#X obj 147 350 *~;
#X obj 338 78 vsl 15 128 0 127 0 0 empty empty empty 0 -9 0 10 -262144
-1 -1 10000 1;
#X obj 548 211 / 127;
#X obj 548 283 line~;
#X obj 167 350 *~;
#X obj 358 78 vsl 15 128 0 127 0 0 empty empty empty 0 -9 0 10 -262144
-1 -1 10000 1;
#X obj 588 211 / 127;
#X obj 588 283 line~;
#X obj 187 350 *~;
#X obj 378 78 vsl 15 128 0 127 0 0 empty empty empty 0 -9 0 10 -262144
-1 -1 10000 1;
#X obj 628 211 / 127;
#X obj 628 283 line~;
#X obj 207 350 *~;
#X obj 398 78 vsl 15 128 0 127 0 0 empty empty empty 0 -9 0 10 -262144
-1 -1 10000 1;
#X obj 668 211 / 127;
#X obj 668 283 line~;
#X obj 227 350 *~;
#X obj 418 78 vsl 15 128 0 127 0 0 empty empty empty 0 -9 0 10 -262144
-1 -1 10000 1;
#X obj 708 211 / 127;
#X obj 708 283 line~;
#X obj 247 350 *~;
#X obj 438 78 vsl 15 128 0 127 0 0 empty empty empty 0 -9 0 10 -262144
-1 -1 10000 1;
#X obj 748 211 / 127;
#X obj 748 283 line~;
#X obj 267 350 *~;
#X obj 466 39 loadbang;
#X msg 466 61 100;
#X obj 127 225 *~ 1;
#X obj 147 225 *~ 1;
#X obj 167 225 *~ 1;
#X obj 187 225 *~ 1;
#X obj 207 225 *~ 1;
#X obj 227 225 *~ 1;
#X obj 247 225 *~ 1;
#X obj 267 225 *~ 1;
#X text 110 55 1>;
#X text 110 75 2>;
#X text 110 95 3>;
#X text 110 115 4>;
#X text 110 135 5>;
#X text 110 155 6>;
#X text 110 175 7>;
#X text 110 195 8>;
#X text 127 37 1^;
#X text 147 37 2^;
#X text 167 37 3^;
#X text 187 37 4^;
#X text 207 37 5^;
#X text 227 37 6^;
#X text 247 37 7^;
#X text 267 37 8^;
#X obj -3 38 *~ 1;
#X obj 7 58 *~ 1;
#X obj 17 78 *~ 1;
#X obj 27 98 *~ 1;
#X obj 67 178 *~ 1;
#X obj 37 118 *~ 1;
#X obj 47 138 *~ 1;
#X obj 57 158 *~ 1;
#X obj -3 6 inlet~;
#X obj 47 6 inlet~;
#X obj 97 6 inlet~;
#X obj 147 6 inlet~;
#X obj 197 6 inlet~;
#X obj 247 6 inlet~;
#X obj 297 6 inlet~;
#X obj 347 6 inlet~;
#X text 289 43 physical outputs volume;
#X text 300 58 1;
#X text 320 58 2;
#X text 340 58 3;
#X text 360 58 4;
#X text 380 58 5;
#X text 400 58 6;
#X text 420 58 7;
#X text 440 58 8;
#N canvas 0 50 1905 1019 togglesignal 0;
#X obj 34 268 inlet~;
#X obj 34 290 *~;
#X obj 34 312 outlet~;
#X obj 101 128 select 0 1;
#X floatatom 101 274 6 0 0 0 - - -, f 6;
#X obj 101 228 line;
#X obj 101 250 / 127;
#X msg 101 153 127 \, 0 70, f 3;
#X msg 129 173 0 \, 127 70, f 3;
#X obj 101 101 tgl 15 0 empty empty empty 17 7 0 10 -262144 -1 -1 1
1;
#X obj 101 69 r init;
#X obj 144 69 r initstereo;
#X connect 0 0 1 0;
#X connect 1 0 2 0;
#X connect 3 0 7 0;
#X connect 3 1 8 0;
#X connect 4 0 1 1;
#X connect 5 0 6 0;
#X connect 6 0 4 0;
#X connect 7 0 5 0;
#X connect 8 0 5 0;
#X connect 9 0 3 0;
#X connect 10 0 9 0;
#X connect 11 0 9 0;
#X coords 0 -1 1 1 17 17 2 100 100;
#X restore 127 55 pd togglesignal;
#X text 521 51 load each voice to 4/5 of it's total volume;
#X msg 466 111 1;
#N canvas 0 50 1905 1019 togglesignal 0;
#X obj 34 268 inlet~;
#X obj 34 290 *~;
#X obj 34 312 outlet~;
#X obj 101 128 select 0 1;
#X floatatom 101 274 6 0 0 0 - - -, f 6;
#X obj 101 228 line;
#X obj 101 250 / 127;
#X msg 101 153 127 \, 0 70, f 3;
#X msg 129 173 0 \, 127 70, f 3;
#X obj 101 101 tgl 15 0 empty empty empty 17 7 0 10 -262144 -1 -1 1
1;
#X obj 101 69 r init;
#X obj 151 69 r initstereo;
#X connect 0 0 1 0;
#X connect 1 0 2 0;
#X connect 3 0 7 0;
#X connect 3 1 8 0;
#X connect 4 0 1 1;
#X connect 5 0 6 0;
#X connect 6 0 4 0;
#X connect 7 0 5 0;
#X connect 8 0 5 0;
#X connect 9 0 3 0;
#X connect 10 0 9 0;
#X connect 11 0 9 0;
#X coords 0 -1 1 1 17 17 2 100 100;
#X restore 147 75 pd togglesignal;
#N canvas 0 50 1905 1019 togglesignal 0;
#X obj 34 268 inlet~;
#X obj 34 290 *~;
#X obj 34 312 outlet~;
#X obj 101 128 select 0 1;
#X floatatom 101 274 6 0 0 0 - - -, f 6;
#X obj 101 228 line;
#X obj 101 250 / 127;
#X msg 101 153 127 \, 0 70, f 3;
#X msg 129 173 0 \, 127 70, f 3;
#X obj 101 101 tgl 15 0 empty empty empty 17 7 0 10 -262144 -1 -1 0
1;
#X obj 101 69 r init;
#X connect 0 0 1 0;
#X connect 1 0 2 0;
#X connect 3 0 7 0;
#X connect 3 1 8 0;
#X connect 4 0 1 1;
#X connect 5 0 6 0;
#X connect 6 0 4 0;
#X connect 7 0 5 0;
#X connect 8 0 5 0;
#X connect 9 0 3 0;
#X connect 10 0 9 0;
#X coords 0 -1 1 1 17 17 2 100 100;
#X restore 167 95 pd togglesignal;
#N canvas 0 50 1905 1019 togglesignal 0;
#X obj 34 268 inlet~;
#X obj 34 290 *~;
#X obj 34 312 outlet~;
#X obj 101 128 select 0 1;
#X floatatom 101 274 6 0 0 0 - - -, f 6;
#X obj 101 228 line;
#X obj 101 250 / 127;
#X msg 101 153 127 \, 0 70, f 3;
#X msg 129 173 0 \, 127 70, f 3;
#X obj 101 101 tgl 15 0 empty empty empty 17 7 0 10 -262144 -1 -1 0
1;
#X obj 101 69 r init;
#X connect 0 0 1 0;
#X connect 1 0 2 0;
#X connect 3 0 7 0;
#X connect 3 1 8 0;
#X connect 4 0 1 1;
#X connect 5 0 6 0;
#X connect 6 0 4 0;
#X connect 7 0 5 0;
#X connect 8 0 5 0;
#X connect 9 0 3 0;
#X connect 10 0 9 0;
#X coords 0 -1 1 1 17 17 2 100 100;
#X restore 187 115 pd togglesignal;
#N canvas 0 50 1905 1019 togglesignal 0;
#X obj 34 268 inlet~;
#X obj 34 290 *~;
#X obj 34 312 outlet~;
#X obj 101 128 select 0 1;
#X floatatom 101 274 6 0 0 0 - - -, f 6;
#X obj 101 228 line;
#X obj 101 250 / 127;
#X msg 101 153 127 \, 0 70, f 3;
#X msg 129 173 0 \, 127 70, f 3;
#X obj 101 101 tgl 15 0 empty empty empty 17 7 0 10 -262144 -1 -1 0
1;
#X obj 101 69 r init;
#X connect 0 0 1 0;
#X connect 1 0 2 0;
#X connect 3 0 7 0;
#X connect 3 1 8 0;
#X connect 4 0 1 1;
#X connect 5 0 6 0;
#X connect 6 0 4 0;
#X connect 7 0 5 0;
#X connect 8 0 5 0;
#X connect 9 0 3 0;
#X connect 10 0 9 0;
#X coords 0 -1 1 1 17 17 2 100 100;
#X restore 207 135 pd togglesignal;
#N canvas 0 50 1905 1019 togglesignal 0;
#X obj 34 268 inlet~;
#X obj 34 290 *~;
#X obj 34 312 outlet~;
#X obj 101 128 select 0 1;
#X floatatom 101 274 6 0 0 0 - - -, f 6;
#X obj 101 228 line;
#X obj 101 250 / 127;
#X msg 101 153 127 \, 0 70, f 3;
#X msg 129 173 0 \, 127 70, f 3;
#X obj 101 101 tgl 15 0 empty empty empty 17 7 0 10 -262144 -1 -1 0
1;
#X obj 101 69 r init;
#X connect 0 0 1 0;
#X connect 1 0 2 0;
#X connect 3 0 7 0;
#X connect 3 1 8 0;
#X connect 4 0 1 1;
#X connect 5 0 6 0;
#X connect 6 0 4 0;
#X connect 7 0 5 0;
#X connect 8 0 5 0;
#X connect 9 0 3 0;
#X connect 10 0 9 0;
#X coords 0 -1 1 1 17 17 2 100 100;
#X restore 227 155 pd togglesignal;
#N canvas 0 50 1905 1019 togglesignal 0;
#X obj 34 268 inlet~;
#X obj 34 290 *~;
#X obj 34 312 outlet~;
#X obj 101 128 select 0 1;
#X floatatom 101 274 6 0 0 0 - - -, f 6;
#X obj 101 228 line;
#X obj 101 250 / 127;
#X msg 101 153 127 \, 0 70, f 3;
#X msg 129 173 0 \, 127 70, f 3;
#X obj 101 101 tgl 15 0 empty empty empty 17 7 0 10 -262144 -1 -1 0
1;
#X obj 101 69 r init;
#X connect 0 0 1 0;
#X connect 1 0 2 0;
#X connect 3 0 7 0;
#X connect 3 1 8 0;
#X connect 4 0 1 1;
#X connect 5 0 6 0;
#X connect 6 0 4 0;
#X connect 7 0 5 0;
#X connect 8 0 5 0;
#X connect 9 0 3 0;
#X connect 10 0 9 0;
#X coords 0 -1 1 1 17 17 2 100 100;
#X restore 247 175 pd togglesignal;
#N canvas 0 50 1905 1019 togglesignal 0;
#X obj 34 268 inlet~;
#X obj 34 290 *~;
#X obj 34 312 outlet~;
#X obj 101 128 select 0 1;
#X floatatom 101 274 6 0 0 0 - - -, f 6;
#X obj 101 228 line;
#X obj 101 250 / 127;
#X msg 101 153 127 \, 0 70, f 3;
#X msg 129 173 0 \, 127 70, f 3;
#X obj 101 101 tgl 15 0 empty empty empty 17 7 0 10 -262144 -1 -1 0
1;
#X obj 101 69 r init;
#X connect 0 0 1 0;
#X connect 1 0 2 0;
#X connect 3 0 7 0;
#X connect 3 1 8 0;
#X connect 4 0 1 1;
#X connect 5 0 6 0;
#X connect 6 0 4 0;
#X connect 7 0 5 0;
#X connect 8 0 5 0;
#X connect 9 0 3 0;
#X connect 10 0 9 0;
#X coords 0 -1 1 1 17 17 2 100 100;
#X restore 267 195 pd togglesignal;
#X obj 466 133 s init;
#X obj 526 133 s initstereo;
#X msg 526 111 1;
#X msg 556 111 0;
#X msg 496 111 0;
#X msg 468 233 \$1 14;
#X msg 508 233 \$1 14;
#X msg 548 233 \$1 14;
#X msg 588 233 \$1 14;
#X msg 628 233 \$1 14;
#X msg 668 233 \$1 14;
#X msg 708 233 \$1 14;
#X msg 748 233 \$1 14;
#X obj 127 426 *~;
#X obj 147 426 *~;
#X obj 167 426 *~;
#X obj 187 426 *~;
#X obj 207 426 *~;
#X obj 227 426 *~;
#X obj 247 426 *~;
#X obj 267 426 *~;
#X obj 127 463 dac~ 1 2 3 4 5 6 7 8;
#X obj 358 323 line~;
#X msg 358 273 \$1 14;
#X obj 358 251 r mastervalue;
#X connect 0 0 91 0;
#X connect 1 0 92 0;
#X connect 2 0 93 0;
#X connect 3 0 94 0;
#X connect 4 0 95 0;
#X connect 5 0 96 0;
#X connect 6 0 97 0;
#X connect 7 0 90 0;
#X connect 8 0 92 0;
#X connect 9 0 93 0;
#X connect 10 0 94 0;
#X connect 11 0 95 0;
#X connect 12 0 96 0;
#X connect 13 0 97 0;
#X connect 14 0 90 0;
#X connect 15 0 91 0;
#X connect 16 0 93 0;
#X connect 17 0 94 0;
#X connect 18 0 95 0;
#X connect 19 0 96 0;
#X connect 20 0 97 0;
#X connect 21 0 90 0;
#X connect 22 0 91 0;
#X connect 23 0 92 0;
#X connect 24 0 94 0;
#X connect 25 0 95 0;
#X connect 26 0 96 0;
#X connect 27 0 97 0;
#X connect 28 0 90 0;
#X connect 29 0 91 0;
#X connect 30 0 92 0;
#X connect 31 0 93 0;
#X connect 32 0 95 0;
#X connect 33 0 96 0;
#X connect 34 0 97 0;
#X connect 35 0 90 0;
#X connect 36 0 91 0;
#X connect 37 0 92 0;
#X connect 38 0 93 0;
#X connect 39 0 94 0;
#X connect 40 0 96 0;
#X connect 41 0 97 0;
#X connect 42 0 90 0;
#X connect 43 0 91 0;
#X connect 44 0 92 0;
#X connect 45 0 93 0;
#X connect 46 0 94 0;
#X connect 47 0 95 0;
#X connect 48 0 97 0;
#X connect 49 0 90 0;
#X connect 50 0 91 0;
#X connect 51 0 92 0;
#X connect 52 0 93 0;
#X connect 53 0 94 0;
#X connect 54 0 95 0;
#X connect 55 0 96 0;
#X connect 56 0 57 0;
#X connect 57 0 154 0;
#X connect 58 0 59 1;
#X connect 59 0 162 0;
#X connect 60 0 61 0;
#X connect 61 0 155 0;
#X connect 62 0 63 1;
#X connect 63 0 163 0;
#X connect 64 0 65 0;
#X connect 65 0 156 0;
#X connect 66 0 67 1;
#X connect 67 0 164 0;
#X connect 68 0 69 0;
#X connect 69 0 157 0;
#X connect 70 0 71 1;
#X connect 71 0 165 0;
#X connect 72 0 73 0;
#X connect 73 0 158 0;
#X connect 74 0 75 1;
#X connect 75 0 166 0;
#X connect 76 0 77 0;
#X connect 77 0 159 0;
#X connect 78 0 79 1;
#X connect 79 0 167 0;
#X connect 80 0 81 0;
#X connect 81 0 160 0;
#X connect 82 0 83 1;
#X connect 83 0 168 0;
#X connect 84 0 85 0;
#X connect 85 0 161 0;
#X connect 86 0 87 1;
#X connect 87 0 169 0;
#X connect 88 0 89 0;
#X connect 89 0 56 0;
#X connect 89 0 84 0;
#X connect 89 0 80 0;
#X connect 89 0 76 0;
#X connect 89 0 72 0;
#X connect 89 0 68 0;
#X connect 89 0 64 0;
#X connect 89 0 60 0;
#X connect 89 0 151 0;
#X connect 90 0 59 0;
#X connect 91 0 63 0;
#X connect 92 0 67 0;
#X connect 93 0 71 0;
#X connect 94 0 75 0;
#X connect 95 0 79 0;
#X connect 96 0 83 0;
#X connect 97 0 87 0;
#X connect 114 0 0 0;
#X connect 114 0 6 0;
#X connect 114 0 5 0;
#X connect 114 0 4 0;
#X connect 114 0 3 0;
#X connect 114 0 2 0;
#X connect 114 0 1 0;
#X connect 114 0 139 0;
#X connect 115 0 7 0;
#X connect 115 0 13 0;
#X connect 115 0 12 0;
#X connect 115 0 11 0;
#X connect 115 0 10 0;
#X connect 115 0 9 0;
#X connect 115 0 8 0;
#X connect 115 0 142 0;
#X connect 116 0 14 0;
#X connect 116 0 20 0;
#X connect 116 0 19 0;
#X connect 116 0 18 0;
#X connect 116 0 17 0;
#X connect 116 0 16 0;
#X connect 116 0 15 0;
#X connect 116 0 143 0;
#X connect 117 0 21 0;
#X connect 117 0 27 0;
#X connect 117 0 26 0;
#X connect 117 0 25 0;
#X connect 117 0 24 0;
#X connect 117 0 23 0;
#X connect 117 0 22 0;
#X connect 117 0 144 0;
#X connect 118 0 49 0;
#X connect 118 0 55 0;
#X connect 118 0 54 0;
#X connect 118 0 53 0;
#X connect 118 0 52 0;
#X connect 118 0 51 0;
#X connect 118 0 50 0;
#X connect 118 0 148 0;
#X connect 119 0 28 0;
#X connect 119 0 34 0;
#X connect 119 0 33 0;
#X connect 119 0 32 0;
#X connect 119 0 31 0;
#X connect 119 0 30 0;
#X connect 119 0 29 0;
#X connect 119 0 145 0;
#X connect 120 0 35 0;
#X connect 120 0 41 0;
#X connect 120 0 40 0;
#X connect 120 0 39 0;
#X connect 120 0 38 0;
#X connect 120 0 37 0;
#X connect 120 0 36 0;
#X connect 120 0 146 0;
#X connect 121 0 42 0;
#X connect 121 0 48 0;
#X connect 121 0 47 0;
#X connect 121 0 46 0;
#X connect 121 0 45 0;
#X connect 121 0 44 0;
#X connect 121 0 43 0;
#X connect 121 0 147 0;
#X connect 122 0 114 0;
#X connect 123 0 115 0;
#X connect 124 0 116 0;
#X connect 125 0 117 0;
#X connect 126 0 119 0;
#X connect 127 0 120 0;
#X connect 128 0 121 0;
#X connect 129 0 118 0;
#X connect 139 0 90 0;
#X connect 141 0 149 0;
#X connect 142 0 91 0;
#X connect 143 0 92 0;
#X connect 144 0 93 0;
#X connect 145 0 94 0;
#X connect 146 0 95 0;
#X connect 147 0 96 0;
#X connect 148 0 97 0;
#X connect 151 0 150 0;
#X connect 152 0 150 0;
#X connect 153 0 149 0;
#X connect 154 0 58 0;
#X connect 155 0 62 0;
#X connect 156 0 66 0;
#X connect 157 0 70 0;
#X connect 158 0 74 0;
#X connect 159 0 78 0;
#X connect 160 0 82 0;
#X connect 161 0 86 0;
#X connect 162 0 170 0;
#X connect 163 0 170 1;
#X connect 164 0 170 2;
#X connect 165 0 170 3;
#X connect 166 0 170 4;
#X connect 167 0 170 5;
#X connect 168 0 170 6;
#X connect 169 0 170 7;
#X connect 171 0 169 1;
#X connect 171 0 168 1;
#X connect 171 0 167 1;
#X connect 171 0 166 1;
#X connect 171 0 165 1;
#X connect 171 0 164 1;
#X connect 171 0 163 1;
#X connect 171 0 162 1;
#X connect 172 0 171 0;
#X connect 173 0 172 0;
#X coords 0 -1 1 1 353 183 2 104 32;
#X restore 223 85 pd matrix outputs;
#X msg 113 33 0;
#X obj 676 107 s pd-settings;
#X text 673 14 open settings;
#X msg 685 58 0;
#X obj 755 43 bng 15 250 50 0 empty empty close 17 7 0 10 -262144 -1
-1;
#X obj 755 63 delay 50;
#X obj 755 85 s close;
#X obj 223 43 catch~ o1;
#X obj 272 63 catch~ o2;
#X obj 321 43 catch~ o3;
#X obj 371 63 catch~ o4;
#X obj 420 43 catch~ o5;
#X obj 470 63 catch~ o6;
#X obj 519 43 catch~ o7;
#X obj 569 63 catch~ o8;
#N canvas 0 0 1905 1019.09 togglesignal 0;
#X obj 37 440 *~;
#X obj 101 188 select 0 1;
#X obj 101 288 line;
#X obj 101 310 / 127;
#X msg 101 213 127 \, 0 70, f 3;
#X msg 129 233 0 \, 127 70, f 3;
#X obj 101 101 tgl 15 0 empty empty empty 17 7 0 10 -262144 -1 -1 1
1;
#X obj 37 465 throw~ o1;
#X obj 147 440 *~;
#X obj 211 188 select 0 1;
#X obj 211 288 line;
#X obj 211 310 / 127;
#X msg 211 213 127 \, 0 70, f 3;
#X msg 239 233 0 \, 127 70, f 3;
#X obj 121 101 tgl 15 0 empty empty empty 17 7 0 10 -262144 -1 -1 1
1;
#X obj 257 440 *~;
#X obj 321 188 select 0 1;
#X obj 321 288 line;
#X obj 321 310 / 127;
#X msg 321 213 127 \, 0 70, f 3;
#X msg 349 233 0 \, 127 70, f 3;
#X obj 141 101 tgl 15 0 empty empty empty 17 7 0 10 -262144 -1 -1 0
1;
#X obj 367 440 *~;
#X obj 431 188 select 0 1;
#X obj 431 288 line;
#X obj 431 310 / 127;
#X msg 431 213 127 \, 0 70, f 3;
#X msg 459 233 0 \, 127 70, f 3;
#X obj 161 101 tgl 15 0 empty empty empty 17 7 0 10 -262144 -1 -1 0
1;
#X obj 477 440 *~;
#X obj 541 188 select 0 1;
#X obj 541 288 line;
#X obj 541 310 / 127;
#X msg 541 213 127 \, 0 70, f 3;
#X msg 569 233 0 \, 127 70, f 3;
#X obj 181 101 tgl 15 0 empty empty empty 17 7 0 10 -262144 -1 -1 0
1;
#X obj 587 440 *~;
#X obj 651 188 select 0 1;
#X obj 651 288 line;
#X obj 651 310 / 127;
#X msg 651 213 127 \, 0 70, f 3;
#X msg 679 233 0 \, 127 70, f 3;
#X obj 201 101 tgl 15 0 empty empty empty 17 7 0 10 -262144 -1 -1 0
1;
#X obj 697 440 *~;
#X obj 761 188 select 0 1;
#X obj 761 288 line;
#X obj 761 310 / 127;
#X msg 761 213 127 \, 0 70, f 3;
#X msg 789 233 0 \, 127 70, f 3;
#X obj 221 101 tgl 15 0 empty empty empty 17 7 0 10 -262144 -1 -1 0
1;
#X obj 807 440 *~;
#X obj 871 188 select 0 1;
#X obj 871 288 line;
#X obj 871 310 / 127;
#X msg 871 213 127 \, 0 70, f 3;
#X msg 899 233 0 \, 127 70, f 3;
#X obj 241 101 tgl 15 0 empty empty empty 17 7 0 10 -262144 -1 -1 0
1;
#X obj 147 465 throw~ o2;
#X obj 257 465 throw~ o3;
#X obj 367 465 throw~ o4;
#X obj 477 465 throw~ o5;
#X obj 587 465 throw~ o6;
#X obj 697 465 throw~ o7;
#X obj 807 465 throw~ o8;
#X msg 101 332 \$1 14;
#X obj 101 354 line~;
#X msg 211 332 \$1 14;
#X msg 321 332 \$1 14;
#X msg 431 332 \$1 14;
#X msg 541 332 \$1 14;
#X msg 651 332 \$1 14;
#X msg 761 332 \$1 14;
#X msg 871 332 \$1 14;
#X obj 211 354 line~;
#X obj 321 354 line~;
#X obj 431 354 line~;
#X obj 541 354 line~;
#X obj 651 354 line~;
#X obj 761 354 line~;
#X obj 871 354 line~;
#X obj 21 290 osc~ 440;
#X obj 37 386 *~;
#X obj 147 386 *~;
#X obj 257 386 *~;
#X obj 367 386 *~;
#X obj 477 386 *~;
#X obj 587 386 *~;
#X obj 697 386 *~;
#X obj 807 386 *~;
#X obj 101 117 hsl 150 15 0.01 1 1 0 empty empty volume 60 5 0 10 -262144
-1 -1 11953 1;
#X obj 44 40 loadbang;
#X msg 44 62 0.035;
#X obj 946 128 expr if($f1<=0.01 \, 0 \, $f1);
#X msg 946 271 \$1 14;
#X obj 946 423 line~;
#X connect 0 0 7 0;
#X connect 1 0 4 0;
#X connect 1 1 5 0;
#X connect 2 0 3 0;
#X connect 3 0 64 0;
#X connect 4 0 2 0;
#X connect 5 0 2 0;
#X connect 6 0 1 0;
#X connect 8 0 57 0;
#X connect 9 0 12 0;
#X connect 9 1 13 0;
#X connect 10 0 11 0;
#X connect 11 0 66 0;
#X connect 12 0 10 0;
#X connect 13 0 10 0;
#X connect 14 0 9 0;
#X connect 15 0 58 0;
#X connect 16 0 19 0;
#X connect 16 1 20 0;
#X connect 17 0 18 0;
#X connect 18 0 67 0;
#X connect 19 0 17 0;
#X connect 20 0 17 0;
#X connect 21 0 16 0;
#X connect 22 0 59 0;
#X connect 23 0 26 0;
#X connect 23 1 27 0;
#X connect 24 0 25 0;
#X connect 25 0 68 0;
#X connect 26 0 24 0;
#X connect 27 0 24 0;
#X connect 28 0 23 0;
#X connect 29 0 60 0;
#X connect 30 0 33 0;
#X connect 30 1 34 0;
#X connect 31 0 32 0;
#X connect 32 0 69 0;
#X connect 33 0 31 0;
#X connect 34 0 31 0;
#X connect 35 0 30 0;
#X connect 36 0 61 0;
#X connect 37 0 40 0;
#X connect 37 1 41 0;
#X connect 38 0 39 0;
#X connect 39 0 70 0;
#X connect 40 0 38 0;
#X connect 41 0 38 0;
#X connect 42 0 37 0;
#X connect 43 0 62 0;
#X connect 44 0 47 0;
#X connect 44 1 48 0;
#X connect 45 0 46 0;
#X connect 46 0 71 0;
#X connect 47 0 45 0;
#X connect 48 0 45 0;
#X connect 49 0 44 0;
#X connect 50 0 63 0;
#X connect 51 0 54 0;
#X connect 51 1 55 0;
#X connect 52 0 53 0;
#X connect 53 0 72 0;
#X connect 54 0 52 0;
#X connect 55 0 52 0;
#X connect 56 0 51 0;
#X connect 64 0 65 0;
#X connect 65 0 81 1;
#X connect 66 0 73 0;
#X connect 67 0 74 0;
#X connect 68 0 75 0;
#X connect 69 0 76 0;
#X connect 70 0 77 0;
#X connect 71 0 78 0;
#X connect 72 0 79 0;
#X connect 73 0 82 1;
#X connect 74 0 83 1;
#X connect 75 0 84 1;
#X connect 76 0 85 1;
#X connect 77 0 86 1;
#X connect 78 0 87 1;
#X connect 79 0 88 1;
#X connect 80 0 81 0;
#X connect 80 0 88 0;
#X connect 80 0 87 0;
#X connect 80 0 86 0;
#X connect 80 0 85 0;
#X connect 80 0 84 0;
#X connect 80 0 83 0;
#X connect 80 0 82 0;
#X connect 81 0 0 0;
#X connect 82 0 8 0;
#X connect 83 0 15 0;
#X connect 84 0 22 0;
#X connect 85 0 29 0;
#X connect 86 0 36 0;
#X connect 87 0 43 0;
#X connect 88 0 50 0;
#X connect 89 0 92 0;
#X connect 90 0 91 0;
#X connect 91 0 89 0;
#X connect 92 0 93 0;
#X connect 93 0 94 0;
#X connect 94 0 50 1;
#X connect 94 0 43 1;
#X connect 94 0 36 1;
#X connect 94 0 29 1;
#X connect 94 0 22 1;
#X connect 94 0 15 1;
#X connect 94 0 8 1;
#X connect 94 0 0 1;
#X coords 0 -1 1 1 157 33 2 100 100;
#X restore 23 151 pd togglesignal;
#X text 202 278 setup virtual outputs from 1 to 8 with the throw~ objects
into the patch and route the physical outputs with this matrix;
#X text 16 132 test tone on each DAC output;
#X obj 7 33 r dspon;
#X connect 0 0 1 0;
#X connect 2 0 0 0;
#X connect 3 0 9 0;
#X connect 4 0 3 0;
#X connect 8 0 0 0;
#X connect 11 0 3 0;
#X connect 12 0 11 0;
#X connect 12 0 13 0;
#X connect 13 0 14 0;
#X connect 15 0 7 0;
#X connect 16 0 7 1;
#X connect 17 0 7 2;
#X connect 18 0 7 3;
#X connect 19 0 7 4;
#X connect 20 0 7 5;
#X connect 21 0 7 6;
#X connect 22 0 7 7;
#X connect 26 0 0 0;
#X restore 111 120 pd settings;
#X obj 101 68 r close;
#X obj 101 151 s openclose;
#X connect 0 0 3 0;
#X connect 2 0 0 0;
#X coords 0 -1 1 1 99 17 2 100 100;
#X restore 6 89 pd opensettingsbutton;
#X obj 402 136 throw~ o1;
#X obj 472 136 throw~ o2;
#X obj 542 136 throw~ o3;
#X obj 612 136 throw~ o4;
#X obj 682 136 throw~ o5;
#X obj 752 136 throw~ o6;
#X obj 822 136 throw~ o7;
#X obj 892 136 throw~ o8;
#X text 608 -5 DAC settings/routing tool;
#X text 529 191 throw~ objects send to virtual outputs from 1 to 8
\; open settings to route throw~ objects to the physical outputs;
#X obj 476 91 inlet~;
#X obj 526 91 inlet~;
#X obj 576 91 inlet~;
#X obj 626 91 inlet~;
#X obj 676 91 inlet~;
#X obj 726 91 inlet~;
#X obj 776 91 inlet~;
#X obj 826 91 inlet~;
#X obj 106 106 hsl 93 17 0.01 1 1 0 empty empty master\ volume 11 7
0 10 -262144 -1 -1 0 1;
#X obj 251 59 loadbang;
#X obj 106 128 expr if($f1<=0.01 \, 0 \, $f1);
#X obj 106 150 s mastervalue;
#X msg 251 81 0.7;
#X text 121 90 in-12345678;
#X connect 12 0 2 0;
#X connect 13 0 3 0;
#X connect 14 0 4 0;
#X connect 15 0 5 0;
#X connect 16 0 6 0;
#X connect 17 0 7 0;
#X connect 18 0 8 0;
#X connect 19 0 9 0;
#X connect 20 0 22 0;
#X connect 21 0 24 0;
#X connect 22 0 23 0;
#X connect 24 0 20 0;
#X coords 0 -1 1 1 198 34 2 6 89;
