#N canvas 727 359 450 323 10;
#X obj 235 118 snapshot~;
#X obj 196 163 spigot~;
#X obj 235 138 expr if($f1 == 0 \, 1 \, 0);
#X obj 79 98 inlet~;
#X obj 79 210 outlet~;
#X obj 129 98 inlet~;
#X obj 129 210 outlet~;
#X obj 235 53 loadbang;
#X msg 235 75 1;
#X obj 235 97 metro 50;
#X connect 0 0 2 0;
#X connect 1 1 6 0;
#X connect 2 0 1 1;
#X connect 3 0 1 0;
#X connect 3 0 4 0;
#X connect 5 0 0 0;
#X connect 5 0 6 0;
#X connect 7 0 8 0;
#X connect 8 0 9 0;
#X connect 9 0 0 0;
