#N canvas 0 0 1923 1000 10;
#X obj 53 56 hsl 128 15 -1 1 0 0 empty empty empty -2 -8 0 10 -262144
-1 -1 6350 1;
#X msg 50 33 0;
#X obj 50 154 min 10;
#X obj 50 100 expr (((($f1)*-1)+1)/2)*20, f 18;
#X obj 190 100 expr (($f1+1)/2)*20, f 11;
#X obj 190 154 min 10;
#X obj 50 176 / 10;
#X obj 190 176 / 10;
#X floatatom 190 198 5 0 0 0 - - -, f 5;
#X floatatom 50 198 5 0 0 0 - - -, f 5;
#X text 192 75 R;
#X obj 50 219 line~;
#X obj 190 219 line~;
#X obj 32 326 *~;
#X obj 173 326 *~;
#X obj 50 8 loadbang;
#X text 79 297 audio in;
#X text 18 325 L;
#X text 201 327 R;
#X text 79 357 audio out;
#X text 283 119 expressions are made in order to respect this range
;
#X text 289 55 fader's range is -1 to +1;
#X text 37 75 L;
#X text 116 75 C;
#X text 472 412 PAN;
#X connect 0 0 4 0;
#X connect 0 0 3 0;
#X connect 1 0 0 0;
#X connect 2 0 6 0;
#X connect 3 0 2 0;
#X connect 4 0 5 0;
#X connect 5 0 7 0;
#X connect 6 0 9 0;
#X connect 7 0 8 0;
#X connect 8 0 12 0;
#X connect 9 0 11 0;
#X connect 11 0 13 1;
#X connect 12 0 14 1;
#X connect 15 0 1 0;
