#N canvas 0 0 1905 1019 10;
#X obj 155 97 hsl 128 15 -1 1 0 0 empty empty empty -2 -8 0 10 -262144
-1 -1 6350 1;
#X msg 225 44 0;
#X obj 155 175 min 10;
#X obj 155 141 expr (((($f1)*-1)+1)/2)*20;
#X obj 325 141 expr (($f1+1)/2)*20;
#X obj 325 175 min 10;
#X obj 155 197 / 10;
#X obj 325 197 / 10;
#X floatatom 325 219 5 0 0 0 - - -, f 5;
#X floatatom 155 219 5 0 0 0 - - -, f 5;
#X text 294 116 R;
#X text 134 116 L;
#X obj 155 240 line~;
#X obj 325 240 line~;
#X obj 140 377 *~;
#X obj 310 377 *~;
#X obj 225 18 loadbang;
#X text 218 116 C;
#X text 114 376 L;
#X text 344 376 R;
#X text 212 328 audio in;
#X text 209 428 audio out;
#X text 312 86 fader's range is -1 to +1 \; expressions are made in
order to respect that range;
#X obj 140 349 inlet~;
#X obj 310 349 inlet~;
#X obj 50 43 inlet;
#X obj 140 399 outlet~;
#X obj 310 399 outlet~;
#X text 19 20 inlet value -1 +1;
#X connect 0 0 3 0;
#X connect 0 0 4 0;
#X connect 1 0 0 0;
#X connect 2 0 6 0;
#X connect 3 0 2 0;
#X connect 4 0 5 0;
#X connect 5 0 7 0;
#X connect 6 0 9 0;
#X connect 7 0 8 0;
#X connect 8 0 13 0;
#X connect 9 0 12 0;
#X connect 12 0 14 1;
#X connect 13 0 15 1;
#X connect 14 0 26 0;
#X connect 15 0 27 0;
#X connect 16 0 1 0;
#X connect 23 0 14 0;
#X connect 24 0 15 0;
#X connect 25 0 0 0;
